DataType=double
version=3
OpenSimVersion=4.5.2-2025-05-03-6a4c6ec41
endheader
time	q	/jointset/head_joint/q/speed
0	-0.7853981633974483	0
0.01027456941222398	-0.7819056645427461	0.7308505968115894
0.02	-0.77095562796646	1.44868618787365
0.02247360058962344	-0.7531348757998252	2.10566064357208
0.03146932077795003	-0.7290447349919363	2.696271773240972
0.03681754145014372	-0.6995859729177989	3.16503291851186
0.04047133447635397	-0.6660553832325987	3.518867430341323
0.04490894288855586	-0.6294320612848329	3.79110766837781
0.04948145927475807	-0.5904292320566257	4.001222588863684
0.05540013740117841	-0.5496194685912044	4.157072720983143
0.05863685792201678	-0.5074835848494245	4.267569443022615
0.06178170521852608	-0.464439168668177	4.338972534119339
0.06753338953885435	-0.4208505571747072	4.375821270844001
0.07077906397879265	-0.3770364857930023	4.382422217642076
0.07650297970270158	-0.3332751499677307	4.362741717978826
0.07930468971535581	-0.2898080470880335	4.320893446626924
0.08206746756476585	-0.24684210626567	4.262506946564457
0.08564000888483214	-0.2045538977909092	4.188419481736793
0.09018390173849694	-0.163093172556429	4.099612462479368
0.09471858996030413	-0.1225853617695885	4.000285850026233
0.09809641131930322	-0.08313460059965841	3.89158915472756
0.1006979398232881	-0.04482145501633651	3.774274628645892
0.1038166201333103	-0.007711757882661673	3.651483979588536
0.1084316407975533	0.02814869944441337	3.525877408624384
0.1129360957969285	0.06272723075517349	3.396639579259366
0.1160833363928517	0.09600383922574238	3.265877549702022
0.12	0.1279704804365747	3.13475365666657
0.1220790546681023	0.1586298727886618	3.002937110039835
0.1262179111461027	0.1879936242553305	2.874134612842885
0.131247580306012	0.2160768115387502	2.748498241646105
0.1338086055894359	0.2429083063037136	2.623624203946185
0.1388758918363381	0.2685129800009362	2.50227295874972
0.1404438068892439	0.292927786591949	2.386436819428136
0.1439633338034882	0.3161904196456443	2.274508206025662
0.1490696536462063	0.3383397732884439	2.165597546428546
0.1516363137543116	0.3594178148401031	2.059588845131197
0.1567889033699451	0.3794696918251029	1.957303239943252
0.1593815178333908	0.3985409661955709	1.860856089409372
0.1619849165444307	0.4166712923252822	1.771676768912926
0.1672221379866366	0.4339110932483657	1.678256498880005
0.1698630556433076	0.4503068791166294	1.597292105511013
0.1751811482828841	0.4659007104957659	1.512304940850886
0.177864876423376	0.4807287420804808	1.443542422347814
0.1805655579300928	0.4948418977305127	1.379679993722526
0.1860143478430059	0.5082687866117733	1.312259087946058
0.188770242241095	0.5210486178706903	1.249279755153508
0.1943358860225781	0.5332255907210924	1.189043881810612
0.1971537366059441	0.5448428390348965	1.129542268128241
0.2	0.5559413636995061	1.075087648968521
0.2057425483468951	0.5665372805119352	1.032265558513404
0.2086582919468959	0.5766556675464513	0.9900201089624852
0.2145655719842954	0.5863323567933202	0.9475216255602843
0.2175665868355605	0.5956062130359617	0.9044494297422663
0.2205942023462436	0.6044994513024432	0.8741789138975139
0.2248407463431515	0.6130126620482137	0.8383036039603139
0.2298784184726458	0.621194463518311	0.8014199491371086
0.2344466224899223	0.6290822142963939	0.7654013708594751
0.2394872366257559	0.6366518563669827	0.7479264562752174
0.2427676650918576	0.6439364050692917	0.7163836756271543
0.2460954684077036	0.6509833589923856	0.6876674285553246
0.2528764006895585	0.6577655916470513	0.6679537931508071
0.256342815224824	0.6643283701540424	0.6443204357383682
0.26	0.6706517693981641	0.625206910835915
0.2636150537074213	0.6768064434790273	0.6002383340567734
0.2707156189219654	0.6827340135384284	0.5958882420972872
0.2744545482914225	0.6884900526493255	0.5570250526824966
0.28	0.6940825218588086	0.5618809078498453
0.2833877424702419	0.6994555764982362	0.5172132340530868
0.2900504628235311	0.7047435632330897	0.5321011459318378
0.2941299708158532	0.7097849911745633	0.4881372683178483
0.3	0.7147585135876405	0.5016196004355794
0.3034579780868674	0.7195360256275295	0.4591695952839278
0.3112595474275737	0.7241863264168836	0.466915912885366
0.3157735512221428	0.7287421815494436	0.4323963123684929
0.3203789114050015	0.733084740305611	0.4340362579391632
0.3250963315103196	0.7373831448909155	0.4244355500075794
0.3341985026548243	0.7414910033293237	0.4053466318978852
0.3399277142911135	0.7454875555680517	0.3933475568951608
0.3446346249399068	0.7493751285748055	0.388261529669345
0.3504574500947342	0.7531527318072245	0.3679543030760112
0.3559383068738489	0.7567463699192563	0.3511731570594781
0.3615712023911726	0.7602721996755066	0.3597692024180719
0.3673739109675405	0.7637152621412493	0.3309760947351119
0.376591465140063	0.7669241700930993	0.3118068061221726
0.38	0.7700012291057406	0.3182209541003879
0.3874819551393112	0.7731645508376136	0.3009380365021351
0.398503874292683	0.7760468114832271	0.2774246452841418
0.4	0.7787372814788676	0.2614117780884583
0.4096655293982719	0.7813186531102194	0.2691198692256196
0.42	0.7839813469201706	0.2521685423063436
0.4211103149708666	0.7863920550968524	0.2316328296826112
0.4324449489994283	0.7886350902190431	0.2176209634599872
0.44	0.7907529455240935	0.206222885912951
0.4456790192950362	0.7927633576686794	0.1959936426541667
0.4559028002480561	0.794423122143624	0.1453884230851409
0.463841976828092	0.7959755156693337	0.1615404921528593
0.4735602021107747	0.7976025336452509	0.1623429995774436
0.4801386761343284	0.7992038370396036	0.157389151290228
0.4925854627129471	0.8007440734106113	0.150491961792579
0.5	0.8022119504516589	0.1430494964154689
0.5055943692200351	0.8036049798176466	0.1355707068515649
0.5182265358063516	0.8047529165311914	0.0860251430714906
0.5297657880638923	0.8054266192294303	0.05291391418771772
0.54	0.8058637745702431	0.03609154740606677
0.5450119528828037	0.8061683456643793	0.02542958544726088
0.558901057629386	0.8063802252665563	0.01719613680091798
0.5712143133334671	0.8065156797200869	0.01001221961151782
0.58	0.8064010088122737	-0.03981614552199966
0.5878444091672602	0.8058238536731773	-0.07150318584309903
0.6029624238390467	0.8050224257119798	-0.0872414972567979
0.6186450065053437	0.8040984839778175	-0.09695380525910201
0.6202727427163379	0.8032525323011419	-0.06301532089957906
0.6386210852259704	0.8027442977468956	-0.04277489310448158
0.6518043613121169	0.8022399776576503	-0.07316453517887291
0.66	0.8013259939997059	-0.1052430260224705
0.6787708129200651	0.8001900134707034	-0.1203154833984608
0.6880834784905314	0.7989403048189064	-0.1290029168272309
0.7008289692291335	0.797517025220033	-0.1692567344149502
0.72	0.7956175882698296	-0.2055253337903205
0.7287418696268149	0.7934703398649507	-0.2220210515542864
0.7499225703514046	0.7912931624620118	-0.2151938666451672
0.76	0.7890510973664648	-0.2313439231714956
0.7775954223387378	0.7866903718387626	-0.2400741417999694
0.8	0.7841572102421167	-0.2800804826240657
0.8079386725971653	0.7811578733890328	-0.3077615696813688
0.8361433315616071	0.7782587864936579	-0.2822488304472662
0.8419017060894984	0.7752178166986251	-0.3211338525116746
0.8762830346232053	0.7719088339223211	-0.3384669740612834
0.8814079243482438	0.768375658923976	-0.357993791655262
0.92	0.7648053547193991	-0.3568372567564373
0.9382145644841626	0.7610677838297211	-0.3998914240519062
0.96	0.7570051674608718	-0.3947460696089718
1	0.7529880938477151	-0.4196063394742454
1.02	0.7486727728165414	-0.4405755061550881
1.06	0.7442115997338342	-0.4504367405989944
1.08	0.7396718198030398	-0.4642792530392968
1.102251881330571	0.7348094109386292	-0.4859462419594743
1.123716965376807	0.7299665286123829	-0.5002944312246296
1.16	0.7247982884013902	-0.5172224777922541
1.18	0.719598105053652	-0.5326659029317282
1.196080161671674	0.7141733277963648	-0.5551480352719673
1.22	0.708608060340802	-0.557510574116187
1.238247348643082	0.7028653754067824	-0.5912341140847897
1.248621708037555	0.6970311660672109	-0.591012266452389
1.271258130373201	0.6909403544700101	-0.6086332618104857
1.28	0.6847948352590352	-0.6283876926294296
1.3	0.6784378225944976	-0.6411064057334066
1.311916521509486	0.671977544046708	-0.655379694749605
1.330508751093379	0.6653092215486565	-0.6641374366258569
1.34	0.6585183505386784	-0.6949694772607716
1.354834517890522	0.6516250495075827	-0.7019790478419792
1.365109781987681	0.6445313282086688	-0.7089725747074832
1.38	0.6373154814768545	-0.7305981333720268
1.397014355332941	0.6299642039225033	-0.7392803444917461
1.4	0.622452937667661	-0.7557317487296566
1.41793922570129	0.6148364175043866	-0.7810843016843251
1.426834770391207	0.6070904877927308	-0.7839480220463022
1.44	0.5991787830866392	-0.7905889825715281
1.454557487344455	0.5911386538102573	-0.8060883400850496
1.46	0.5829947958128259	-0.8214579216210068
1.471746105423234	0.5747083394950505	-0.8304910652825729
1.481773464193668	0.5662885211424645	-0.844181560357219
1.494725286685654	0.5577563510375343	-0.8631371029508116
1.504199032536903	0.5491237942563291	-0.8791925984499864
1.519667364586911	0.5403641597288924	-0.8847102001769881
1.52	0.5314774435602883	-0.8932128220812227
1.534697508335049	0.5224757550284232	-0.9050420332169733
1.544097199751952	0.5133695644756704	-0.9201493775427454
1.555916700056751	0.5041651290459047	-0.9349835633382814
1.563533481401131	0.4948526288661507	-0.9403457221017715
1.577443722546555	0.4854283014017557	-0.9469076774278575
1.58	0.4758990675743342	-0.9552000124995492
1.591065269890191	0.466270756883078	-0.9651352601316663
1.601496125707343	0.45654816272969	-0.9765505619080477
1.612518044860707	0.4467351137007053	-0.98906828914891
1.62	0.4368342894951349	-1.001609881420409
1.630305869302745	0.4268464548383575	-1.011193117358383
1.64	0.4167699773576704	-1.017107607474331
1.644825347213394	0.4066071507904149	-1.023369344710351
1.655365375060099	0.396361621774114	-1.029838724731216
1.66580149734519	0.3860366961742689	-1.036372160073054
1.676139453286419	0.3756354254790102	-1.042832307333158
1.68	0.3651607150516145	-1.049085602906754
1.691523111112229	0.3546155434036	-1.054982671563609
1.7	0.3440030050415855	-1.060394663526484
1.706616413986459	0.3333262277732869	-1.065225159106438
1.716612257529779	0.3225881745866965	-1.070236010977674
1.72630588160946	0.3117900011751878	-1.077709458478991
1.736384946292605	0.3009326377692159	-1.085783127188356
1.74	0.2900181500851799	-1.09340544582349
1.748860345019118	0.2790491449056534	-1.100157471380353
1.759959898191966	0.2680285206285089	-1.105870115577154
1.765553377510107	0.2569594297703696	-1.110482176227336
1.775159253656871	0.245845201442506	-1.11399536176303
1.781847715524092	0.2346892105158948	-1.116444264802176
1.7926519300942	0.2234947965932955	-1.117880539867445
1.8	0.212265070844825	-1.119293440912711
1.803669870488428	0.2010001757634456	-1.124161475309498
1.814012360935068	0.1897001957920338	-1.129519844693337
1.822449528715116	0.1783675741022815	-1.13405033469543
1.831779097832425	0.1670054658327495	-1.137449514533896
1.84	0.1556171787992901	-1.139705288970132
1.845469178287889	0.1442060527051953	-1.140884987760951
1.855816269489197	0.1327754054462491	-1.141082809459155
1.86	0.1213284625669734	-1.140400085196615
1.868752419693998	0.1098681120552883	-1.140039016395853
1.877920945331916	0.09839421997635342	-1.143169746163297
1.886511410969085	0.08690707333102604	-1.146769896889127
1.896183379866699	0.07540917478980391	-1.149666747755272
1.9	0.06390358155974318	-1.151618022208898
1.906722683992905	0.05239337872357782	-1.15264244284828
1.916757294681163	0.04088153778279598	-1.152826728981338
1.923421082451718	0.0293708861486271	-1.152269827105137
1.932466610461159	0.01786410875403783	-1.151067059444198
1.94	0.00636375884820529	-1.149305967297703
1.946611819690993	-0.005127782557693021	-1.147548389275866
1.956491564897169	-0.0166095128628409	-1.148215886001914
1.96	-0.02808045861096902	-1.149168371592983
1.968530679222069	-0.03953821052267702	-1.149164912061093
1.977526399410409	-0.05098001662177153	-1.148237393953479
1.985956817350904	-0.06240315960345495	-1.146536351909776
1.995506176052069	-0.07380503055766853	-1.144217689997106
2	-0.08518313413435764	-1.141414451541927
